# xmcd
#
# Track frame offsets: 
#        182
#        13400
#        28615
#        48972
#        68125
#        90020
#        103772
#        120725
#        137822
#        152827
#        167407
#
# Disc length: 2429 seconds
#
# Revision: 3
# Processed by: cddbd v1.5.2PL0 Copyright (c) Steve Scherf et al.
# Submitted via: ExactAudioCopy v1.0b4
#
DISCID=86097b0b
DTITLE=Various Artist - The Hot Stuff - Volume III
DYEAR=1994
DGENRE=Country
TTITLE0=Red Hots - Teach Your Children
TTITLE1=Sammy Kershaw - Third Rate Romance
TTITLE2=Sammy Kershaw - Southbound
TTITLE3=Shania Twain - Any Man of Mine
TTITLE4=Shania Twain - The Woman In Me (Needs the Man In You)
TTITLE5=Kathy Mattea - Maybe She's Human
TTITLE6=Kathy Mattea - Nobody's Gonna Rain On Our Parade
TTITLE7=John and Audrey Wiggins - Memory Making Night
TTITLE8=John and Audrey Wiggins - Has Anybody Seen Amy
TTITLE9=Kathy Mattea - Mary, Did You Know?
TTITLE10=Sammy Kershaw - Christmas Time's A Comin'
EXTD=YEAR: 1994
EXTT0=
EXTT1=
EXTT2=
EXTT3=
EXTT4=
EXTT5=
EXTT6=
EXTT7=
EXTT8=
EXTT9=
EXTT10=
PLAYORDER=
